<svg xmlns="http://www.w3.org/2000/svg" viewBox="0 0 512 512">
  <rect width="512" height="512" rx="80" fill="#0a0a0a"/>
  <g transform="translate(256,256)">
    <path d="M-25,-170 L25,-170 L30,-125 L-30,-125 Z" fill="#d0d0d0"/>
    <path d="M-25,-170 L25,-170 L30,-125 L-30,-125 Z" fill="#d0d0d0" transform="rotate(45)"/>
    <path d="M-25,-170 L25,-170 L30,-125 L-30,-125 Z" fill="#d0d0d0" transform="rotate(90)"/>
    <path d="M-25,-170 L25,-170 L30,-125 L-30,-125 Z" fill="#d0d0d0" transform="rotate(135)"/>
    <path d="M-25,-170 L25,-170 L30,-125 L-30,-125 Z" fill="#d0d0d0" transform="rotate(180)"/>
    <path d="M-25,-170 L25,-170 L30,-125 L-30,-125 Z" fill="#d0d0d0" transform="rotate(225)"/>
    <path d="M-25,-170 L25,-170 L30,-125 L-30,-125 Z" fill="#d0d0d0" transform="rotate(270)"/>
    <path d="M-25,-170 L25,-170 L30,-125 L-30,-125 Z" fill="#d0d0d0" transform="rotate(315)"/>
    <circle r="130" fill="#d0d0d0"/>
    <circle r="90" fill="#0a0a0a"/>
    <circle r="45" fill="#d0d0d0"/>
    <circle r="20" fill="#0a0a0a"/>
  </g>
</svg>
